<svg width="24" height="24" viewBox="0 0 24 24" fill="none" xmlns="http://www.w3.org/2000/svg">
<path d="M12 18C12 21.3137 9.31371 24 6 24C2.68629 24 0 21.3137 0 18C0 14.6863 2.68629 12 6 12C9.31371 12 12 14.6863 12 18Z" fill="url(#paint0_linear_202_550)"/>
<path d="M6 3C6 1.34315 7.34315 0 9 0C10.6569 0 12 1.34315 12 3V12H6V3Z" fill="url(#paint1_linear_202_550)"/>
<path d="M12 3C12 1.34315 13.3431 0 15 0C16.6569 0 18 1.34315 18 3V12H12V3Z" fill="url(#paint2_linear_202_550)"/>
<path d="M12 12H24V18C24 21.3137 21.3137 24 18 24C14.6863 24 12 21.3137 12 18V12Z" fill="url(#paint3_linear_202_550)"/>
<defs>
<linearGradient id="paint0_linear_202_550" x1="13.1184" y1="12" x2="22.8816" y2="24" gradientUnits="userSpaceOnUse">
<stop stop-color="#BBDDFF"/>
<stop offset="1" stop-color="#C85A15"/>
</linearGradient>
<linearGradient id="paint1_linear_202_550" x1="13.1184" y1="12" x2="22.8816" y2="24" gradientUnits="userSpaceOnUse">
<stop stop-color="#BBDDFF"/>
<stop offset="1" stop-color="#C85A15"/>
</linearGradient>
<linearGradient id="paint2_linear_202_550" x1="13.1184" y1="12" x2="22.8816" y2="24" gradientUnits="userSpaceOnUse">
<stop stop-color="#BBDDFF"/>
<stop offset="1" stop-color="#C85A15"/>
</linearGradient>
<linearGradient id="paint3_linear_202_550" x1="13.1184" y1="12" x2="22.8816" y2="24" gradientUnits="userSpaceOnUse">
<stop stop-color="#BBDDFF"/>
<stop offset="1" stop-color="#C85A15"/>
</linearGradient>
</defs>
</svg>
